<svg width="49" height="24" viewBox="0 0 49 24" fill="none" xmlns="http://www.w3.org/2000/svg">
<g id="Logo" clip-path="url(#clip0_1_1032)">
<g id="Vector">
<path d="M0.167725 17.6975L5.09494 10.0306H0.751418C0.714609 9.80976 0.698833 9.56787 0.698833 9.29968C0.698833 9.04202 0.714609 8.80538 0.751418 8.58978H7.78204L7.87143 8.82642L2.9074 16.5091H7.56118C7.59799 16.751 7.61377 17.0034 7.61377 17.2558C7.61377 17.4977 7.59799 17.7291 7.56118 17.9499H0.257119L0.167725 17.6975Z" fill="#4C4C4D"/>
<path d="M14.3868 11.7818C14.3868 11.0614 14.2027 10.5671 13.8399 10.2831C13.477 10.0044 12.9459 9.86244 12.2518 9.86244C11.8259 9.86244 11.4262 9.89399 11.0581 9.96235C10.6848 10.0307 10.3272 10.1149 9.96961 10.2253C9.73824 9.82563 9.62255 9.34185 9.62255 8.78445C10.038 8.65299 10.4902 8.54782 10.9898 8.4742C11.4893 8.40058 11.9678 8.36377 12.4306 8.36377C13.6453 8.36377 14.5708 8.64247 15.2071 9.19461C15.8381 9.74676 16.1589 10.6354 16.1589 11.8502V17.7081C15.7329 17.8028 15.2176 17.908 14.6076 18.0079C13.9976 18.113 13.3771 18.1604 12.7461 18.1604C12.1519 18.1604 11.6103 18.1078 11.1317 17.9974C10.6532 17.8869 10.2431 17.7134 9.90651 17.4662C9.56996 17.2243 9.3123 16.9141 9.12825 16.5355C8.9442 16.1569 8.85481 15.6994 8.85481 15.1683C8.85481 14.6477 8.95998 14.1849 9.17558 13.7905C9.38592 13.3962 9.67513 13.0649 10.0432 12.8072C10.4061 12.5443 10.8267 12.3497 11.3053 12.2235C11.7785 12.0973 12.2781 12.0289 12.8039 12.0289C13.1931 12.0289 13.5138 12.0395 13.761 12.0552C14.0081 12.071 14.2185 12.0973 14.392 12.1183V11.7818H14.3868ZM14.3868 13.5539C14.2027 13.5276 13.9713 13.5066 13.6926 13.4803C13.4139 13.454 13.1773 13.4435 12.9827 13.4435C12.2255 13.4435 11.6523 13.5855 11.2579 13.8642C10.8636 14.1429 10.6637 14.5688 10.6637 15.142C10.6637 15.5048 10.7321 15.794 10.8636 15.9991C10.995 16.2042 11.1633 16.362 11.3631 16.4724C11.5629 16.5828 11.7838 16.6512 12.0309 16.6722C12.2728 16.6985 12.5042 16.709 12.7251 16.709C13.0038 16.709 13.293 16.6932 13.5927 16.6617C13.8925 16.6301 14.1554 16.5881 14.3868 16.525V13.5539Z" fill="#4C4C4D"/>
<path d="M18.1308 8.59018C18.2517 8.56389 18.3779 8.54811 18.5041 8.5376C18.6303 8.52708 18.7618 8.52182 18.8985 8.52182C19.0195 8.52182 19.1457 8.52708 19.2824 8.5376C19.4138 8.54811 19.5453 8.56915 19.6663 8.59018C19.6768 8.61647 19.6925 8.69009 19.7136 8.8163C19.7294 8.9425 19.7504 9.07922 19.7662 9.22646C19.7819 9.3737 19.803 9.51042 19.8187 9.64714C19.8345 9.78386 19.845 9.868 19.845 9.90481C19.966 9.71024 20.1132 9.52094 20.2815 9.33689C20.4498 9.15284 20.6549 8.98983 20.8915 8.84259C21.1281 8.69535 21.3963 8.57966 21.696 8.49553C21.9958 8.41139 22.3271 8.36932 22.6899 8.36932C23.2368 8.36932 23.7468 8.45872 24.2149 8.64277C24.6829 8.82681 25.0825 9.10551 25.4191 9.48938C25.7556 9.87326 26.0133 10.3623 26.2026 10.9513C26.3919 11.5402 26.4865 12.2396 26.4865 13.0441C26.4865 14.6532 26.0501 15.91 25.1824 16.8145C24.3095 17.7189 23.079 18.1764 21.4857 18.1764C21.2175 18.1764 20.9441 18.1607 20.6654 18.1239C20.3867 18.087 20.1395 18.0397 19.9344 17.9766V22.2676C19.7872 22.2938 19.6347 22.3096 19.4664 22.3201C19.3034 22.3307 19.1509 22.3359 19.0195 22.3359C18.888 22.3359 18.7355 22.3307 18.5725 22.3201C18.4095 22.3096 18.257 22.2886 18.1255 22.2676V8.59018H18.1308ZM19.9397 16.4201C20.1711 16.5042 20.4077 16.5673 20.6496 16.6041C20.8915 16.641 21.207 16.6567 21.6014 16.6567C22.0378 16.6567 22.4427 16.5884 22.8056 16.4464C23.1684 16.3044 23.4839 16.0888 23.7468 15.7996C24.0098 15.5051 24.2149 15.137 24.3674 14.6953C24.5198 14.2536 24.5935 13.7225 24.5935 13.1178C24.5935 12.1449 24.4147 11.3719 24.0571 10.7988C23.6995 10.2256 23.1106 9.94162 22.2955 9.94162C21.9905 9.94162 21.7013 9.9942 21.4173 10.1046C21.1386 10.2151 20.8862 10.3781 20.6706 10.5989C20.4498 10.8198 20.2762 11.0932 20.1395 11.4298C20.0028 11.7663 19.9397 12.1607 19.9397 12.6235V16.4201Z" fill="#4C4C4D"/>
<path d="M28.7372 10.0096H27.5487C27.5224 9.90967 27.5067 9.79924 27.4962 9.67304C27.4856 9.54683 27.4804 9.42063 27.4804 9.29968C27.4804 9.17874 27.4856 9.05253 27.4962 8.92633C27.5067 8.80012 27.5277 8.68444 27.5487 8.58978H30.5093V17.9552C30.3778 17.9815 30.2253 17.9972 30.0623 18.0078C29.8993 18.0183 29.7468 18.0235 29.6153 18.0235C29.4944 18.0235 29.3524 18.0183 29.1841 18.0078C29.0211 17.9972 28.8686 17.9762 28.7372 17.9552V10.0096Z" fill="#4C4C4D"/>
<path d="M34.3953 13.7171C34.4216 14.7372 34.6845 15.4892 35.1893 15.9624C35.6942 16.4357 36.4409 16.6723 37.4242 16.6723C38.2866 16.6723 39.1122 16.5198 39.8904 16.2149C39.9903 16.3989 40.0692 16.6198 40.1271 16.8827C40.1902 17.1456 40.2217 17.4033 40.2375 17.6609C39.8379 17.8292 39.3961 17.9607 38.9124 18.0448C38.4338 18.1289 37.8975 18.171 37.3138 18.171C36.4619 18.171 35.731 18.0501 35.121 17.8134C34.511 17.5768 34.0114 17.2403 33.617 16.8091C33.2227 16.3779 32.9334 15.8678 32.7494 15.2736C32.5653 14.6846 32.4759 14.0378 32.4759 13.3279C32.4759 12.6338 32.5653 11.987 32.7389 11.3823C32.9124 10.7776 33.1858 10.257 33.5487 9.80999C33.9115 9.36828 34.3743 9.0107 34.9264 8.75303C35.4786 8.49011 36.1359 8.35864 36.8878 8.35864C37.5346 8.35864 38.0973 8.46907 38.5863 8.68993C39.0754 8.91079 39.4803 9.21052 39.8116 9.59439C40.1376 9.97826 40.39 10.4358 40.5583 10.9616C40.7265 11.4927 40.8159 12.0659 40.8159 12.6864C40.8159 12.8547 40.8107 13.0387 40.7949 13.2228C40.7844 13.4121 40.7686 13.5751 40.7581 13.7065H34.3953V13.7171ZM39.0333 12.3656C39.0333 12.0238 38.986 11.6978 38.8966 11.3875C38.8072 11.0773 38.6705 10.8091 38.4969 10.5777C38.3181 10.3464 38.0973 10.1623 37.8238 10.0203C37.5504 9.87835 37.2244 9.80999 36.8458 9.80999C36.1043 9.80999 35.5364 10.0361 35.1367 10.4831C34.7424 10.9353 34.5005 11.5611 34.4163 12.3656H39.0333Z" fill="#4C4C4D"/>
<path d="M42.8142 8.58978C42.9457 8.56349 43.0771 8.54772 43.1981 8.5372C43.319 8.52668 43.4452 8.52142 43.5819 8.52142C43.7134 8.52142 43.8501 8.52668 43.9816 8.5372C44.1131 8.54772 44.2393 8.56875 44.3444 8.58978C44.3812 8.77383 44.418 9.01046 44.4549 9.3102C44.4917 9.60993 44.5074 9.86234 44.5074 10.0674C44.7651 9.652 45.1017 9.29442 45.5223 8.98943C45.943 8.68444 46.4794 8.53194 47.1367 8.53194C47.2366 8.53194 47.3365 8.5372 47.4364 8.54246C47.5416 8.54772 47.6257 8.55823 47.6994 8.56875C47.7256 8.67918 47.7414 8.79487 47.7519 8.91581C47.7625 9.03676 47.7677 9.16296 47.7677 9.29968C47.7677 9.44692 47.7572 9.59942 47.7414 9.75717C47.7256 9.91493 47.6993 10.0674 47.6783 10.2147C47.5784 10.1884 47.4785 10.1779 47.3786 10.1779C47.2734 10.1779 47.1945 10.1779 47.1314 10.1779C46.8054 10.1779 46.4899 10.2252 46.1902 10.3146C45.8904 10.404 45.6222 10.567 45.3856 10.7984C45.149 11.0297 44.9597 11.3452 44.8177 11.7501C44.6757 12.1498 44.6073 12.6704 44.6073 13.3014V17.9552C44.4759 17.9815 44.3234 17.9973 44.1604 18.0078C43.9974 18.0183 43.8449 18.0235 43.7134 18.0235C43.5819 18.0235 43.4294 18.0183 43.2664 18.0078C43.1034 17.9973 42.9457 17.9762 42.7984 17.9552V8.58978H42.8142Z" fill="#4C4C4D"/>
<path d="M32.2287 3.07908H30.4619L31.7134 1.82755C31.6135 1.69083 31.5031 1.55937 31.3874 1.43842C31.2664 1.31748 31.1402 1.20705 30.9982 1.11239L29.7467 2.36392V0.597061C29.5837 0.570768 29.4154 0.554993 29.2419 0.554993H29.2366C29.0631 0.554993 28.8948 0.570768 28.7318 0.597061V2.36392L27.4803 1.11239C27.3436 1.21231 27.2121 1.32273 27.0912 1.43842C26.9702 1.55937 26.8651 1.68557 26.7651 1.82755L28.0219 3.07908H26.2551C26.2551 3.07908 26.213 3.41036 26.213 3.58389C26.213 3.75742 26.2288 3.92569 26.2551 4.08871H28.0219L26.7704 5.34023C26.965 5.61367 27.2069 5.85557 27.4856 6.05539L28.7371 4.80387V6.57072C28.9001 6.59702 29.0684 6.61279 29.2419 6.61279H29.2472C29.4207 6.61279 29.589 6.59702 29.752 6.57072V4.80387L31.0035 6.05539C31.1402 5.95548 31.2717 5.84505 31.3926 5.72936C31.5136 5.60842 31.624 5.48221 31.7187 5.34023L30.4671 4.08871H32.234C32.2603 3.92569 32.2761 3.75742 32.2761 3.58389V3.57863C32.2708 3.41036 32.2603 3.24209 32.2287 3.07908ZM29.9991 3.58915C29.9991 3.81527 29.9571 4.03086 29.8834 4.23069C29.6836 4.30431 29.468 4.34638 29.2419 4.34638C29.0158 4.34638 28.8002 4.30431 28.6004 4.23069C28.5267 4.03086 28.4847 3.81527 28.4847 3.58915V3.58389C28.4847 3.35778 28.5267 3.14218 28.6004 2.94235C28.8002 2.86874 29.0158 2.82667 29.2419 2.82667C29.468 2.82667 29.6836 2.86874 29.8834 2.94235C29.9571 3.14218 29.9991 3.35778 29.9991 3.58915Z" fill="#4C4C4D"/>
</g>
</g>
<defs>
<clipPath id="clip0_1_1032">
<rect width="48" height="24" fill="white" transform="translate(0.166748)"/>
</clipPath>
</defs>
</svg>
