<svg width="50" height="24" viewBox="0 0 50 24" fill="none" xmlns="http://www.w3.org/2000/svg">
<g id="Logo" clip-path="url(#clip0_1_1040)">
<path id="Vector" fill-rule="evenodd" clip-rule="evenodd" d="M40.1866 10.2998C40.3737 10.6227 40.435 10.9899 40.4552 11.4028L40.4817 11.9532V15.8016L40.5089 16.3525C40.5632 17.2522 41.2267 17.9175 42.1333 17.9741L42.6814 18.0012V11.9532L42.7085 11.4028C42.731 10.9946 42.7917 10.6203 42.9817 10.2952C43.1753 9.96174 43.4532 9.68506 43.7875 9.49296C44.1219 9.30086 44.5009 9.20011 44.8865 9.20081C45.2721 9.20151 45.6507 9.30365 45.9844 9.49696C46.318 9.69027 46.5949 9.96796 46.7873 10.3021C46.9744 10.625 47.0328 10.9992 47.0553 11.4028L47.0824 11.9515V15.8016L47.1096 16.3525C47.1662 17.2568 47.8245 17.9221 48.734 17.9741L49.2821 18.0012V11.4028C49.2821 10.2361 48.8187 9.11705 47.9938 8.29186C47.1689 7.46666 46.0501 7.00284 44.8833 7.00238C44.2589 7.00172 43.6414 7.13434 43.0723 7.39137C42.5031 7.6484 41.9954 8.02393 41.583 8.49287C41.1704 8.02412 40.6626 7.64868 40.0936 7.39157C39.5245 7.13446 38.9071 7.00158 38.2826 7.0018C37.3691 7.0018 36.5213 7.27899 35.8191 7.75773C35.3906 7.27957 34.432 7.0018 33.8816 7.0018V18.0012L34.432 17.9741C35.3525 17.9134 36.0177 17.2661 36.0535 16.3525L36.083 15.8016V11.9532L36.1101 11.4028C36.1332 10.9876 36.191 10.6227 36.3787 10.2975C36.5724 9.96425 36.8502 9.68764 37.1843 9.49531C37.5184 9.30298 37.8971 9.20165 38.2826 9.20145C38.6685 9.20154 39.0475 9.30306 39.3816 9.49585C39.7158 9.68863 39.9934 9.9659 40.1866 10.2998ZM2.53266 17.9747L3.08301 18.0012H11.3324L11.3053 17.4526C11.2308 16.5483 10.5904 15.8876 9.68312 15.8287L9.13277 15.8016H4.1837L10.7821 9.20088L10.7549 8.65284C10.7122 7.73925 10.0446 7.07918 9.13277 7.02894L8.58243 7.00411L0.333008 7.0018L0.36015 7.55215C0.432336 8.44783 1.08201 9.12234 1.98174 9.17431L2.53266 9.20145H7.48174L0.883354 15.8021L0.910496 16.3525C0.96478 17.2592 1.61907 17.9158 2.53266 17.9741V17.9747ZM31.7224 8.61184C32.2332 9.12252 32.6384 9.72883 32.9148 10.3961C33.1913 11.0634 33.3335 11.7786 33.3335 12.5009C33.3335 13.2232 33.1913 13.9384 32.9148 14.6057C32.6384 15.273 32.2332 15.8793 31.7224 16.39C30.6904 17.4212 29.2913 18.0004 27.8324 18.0004C26.3736 18.0004 24.9744 17.4212 23.9425 16.39C21.7948 14.2424 21.7948 10.7595 23.9425 8.61184C24.4528 8.10132 25.0587 7.69633 25.7255 7.41998C26.3924 7.14363 27.1071 7.00133 27.829 7.00122C28.552 7.00072 29.268 7.14276 29.9361 7.41923C30.6041 7.69569 31.2111 8.10115 31.7224 8.61242V8.61184ZM30.1661 10.1693C30.7847 10.7884 31.1322 11.6278 31.1322 12.503C31.1322 13.3781 30.7847 14.2175 30.1661 14.8366C29.547 15.4552 28.7076 15.8027 27.8324 15.8027C26.9572 15.8027 26.1179 15.4552 25.4988 14.8366C24.8802 14.2175 24.5327 13.3781 24.5327 12.503C24.5327 11.6278 24.8802 10.7884 25.4988 10.1693C26.1179 9.55071 26.9572 9.20322 27.8324 9.20322C28.7076 9.20322 29.547 9.55071 30.1661 10.1693ZM16.2861 7.00122C17.008 7.00141 17.7228 7.1438 18.3896 7.42025C19.0565 7.6967 19.6623 8.1018 20.1726 8.61242C22.3209 10.7595 22.3209 14.2429 20.1726 16.39C19.1406 17.4212 17.7415 18.0004 16.2827 18.0004C14.8238 18.0004 13.4247 17.4212 12.3927 16.39C10.245 14.2424 10.245 10.7595 12.3927 8.61184C12.903 8.10132 13.5089 7.69633 14.1758 7.41998C14.8426 7.14363 15.5574 7.00133 16.2792 7.00122H16.2861ZM18.6163 10.1682C19.2351 10.7873 19.5827 11.6268 19.5827 12.5021C19.5827 13.3774 19.2351 14.2169 18.6163 14.836C17.9972 15.4546 17.1578 15.8021 16.2827 15.8021C15.4075 15.8021 14.5681 15.4546 13.949 14.836C13.3304 14.2169 12.9829 13.3776 12.9829 12.5024C12.9829 11.6272 13.3304 10.7878 13.949 10.1687C14.5681 9.55013 15.4075 9.20264 16.2827 9.20264C17.1578 9.20264 17.9972 9.55013 18.6163 10.1687V10.1682Z" fill="#4C4C4D"/>
</g>
<defs>
<clipPath id="clip0_1_1040">
<rect width="49" height="24" fill="white" transform="translate(0.333008)"/>
</clipPath>
</defs>
</svg>
